<svg xmlns="http://www.w3.org/2000/svg" viewBox="0 0 128 128" role="img" aria-label="Play Streamers PS logo">
  <defs>
    <linearGradient id="psEdge" x1="12" y1="8" x2="114" y2="120" gradientUnits="userSpaceOnUse">
      <stop stop-color="#7cff3d"/>
      <stop offset=".52" stop-color="#53fc18"/>
      <stop offset="1" stop-color="#37c90d"/>
    </linearGradient>
    <filter id="psGlow" x="-35%" y="-35%" width="170%" height="170%">
      <feGaussianBlur stdDeviation="3.2" result="blur"/>
      <feMerge><feMergeNode in="blur"/><feMergeNode in="SourceGraphic"/></feMerge>
    </filter>
  </defs>
  <g transform="rotate(-4 64 64)">
    <path d="M21 10h86a12 12 0 0 1 12 12v84a12 12 0 0 1-12 12H18a9 9 0 0 1-9-9V22a12 12 0 0 1 12-12Z" fill="#020603" stroke="url(#psEdge)" stroke-width="3"/>
    <path d="M26 22h76a7 7 0 0 1 7 7v72a7 7 0 0 1-7 7H24a5 5 0 0 1-5-5V29a7 7 0 0 1 7-7Z" fill="none" stroke="#53fc18" stroke-opacity=".24" stroke-width="2"/>
    <text x="64" y="80" text-anchor="middle" fill="#53fc18" font-family="Space Grotesk,Arial,sans-serif" font-size="49" font-weight="900" letter-spacing="-8" filter="url(#psGlow)">PS</text>
  </g>
</svg>
